PathFileType	4	(X/Y/Z)	C:\Users\WrightLab\Desktop\Jo\P5V29.trc
DataRate	CameraRate	NumFrames	NumMarkers	Units	OrigDataRate	OrigDataStartFrame	OrigNumFrames
100.00	100.00	       40	19	mm	100.00	95	       759
Frame#	Time	Headset_Front			Headset_Back			Headset_Left			Headset_Right			Left_Shoulder			Right_Shoulder			Sternum			C7			Left Elbow			Right Elbow			Left Wrist			Right Wrist			Left ASIS			Right ASIS			S2			Left Knee			Right Knee			Left Ankle			Right Ankle			
		X1	Y1	Z1	X2	Y2	Z2	X3	Y3	Z3	X4	Y4	Z4	X5	Y5	Z5	X6	Y6	Z6	X7	Y7	Z7	X8	Y8	Z8	X9	Y9	Z9	X10	Y10	Z10	X11	Y11	Z11	X12	Y12	Z12	X13	Y13	Z13	X14	Y14	Z14	X15	Y15	Z15	X16	Y16	Z16	X17	Y17	Z17	X18	Y18	Z18	X19	Y19	Z19	

95	0.940																												-551.44116	1156.13184	-1372.24646	-4.92695	951.88928	-1335.01917	-498.41672	1024.71045	-1179.99207				-372.50375	926.38104	-1260.24646				-65.55898	472.00647	-1344.55847	-445.80154	468.07391	-1312.37939							
96	0.950																												-551.35065	1156.13220	-1372.16028	-4.86451	951.89117	-1334.84729	-498.46219	1025.03333	-1180.25610				-372.49911	926.39984	-1260.22791				-65.43591	472.11273	-1343.82043	-445.96750	467.99722	-1311.86780							
97	0.960																												-551.27545	1156.11523	-1372.07776	-4.76896	951.89478	-1334.54260	-498.39050	1024.59680	-1179.84863				-372.45911	926.37567	-1260.03455				-65.35110	472.22205	-1343.31677	-446.68558	468.51700	-1311.39856							
98	0.970																												-551.20313	1156.12048	-1372.03870	-4.69120	951.94470	-1334.38965	-498.38956	1025.01208	-1180.22180				-372.42700	926.39551	-1259.88611				-65.25965	472.37683	-1342.77844	-446.69354	468.51331	-1311.39905							
99	0.980																												-550.81958	1156.39429	-1372.86328	-4.61537	951.98724	-1334.23596	-497.55258	1023.68018	-1179.62085				-371.79950	925.63458	-1262.12866				-64.74237	471.62616	-1343.52625	-446.82523	468.53873	-1310.64380							
100	0.990																												-550.70160	1156.38306	-1372.62585	-4.50427	952.03802	-1333.95789	-497.93488	1024.28003	-1179.74329				-372.35464	926.50836	-1259.56360				-64.61445	471.85580	-1342.77478	-446.78409	467.72095	-1309.96008							
101	1.000																												-550.65253	1156.39160	-1372.55603	-4.13473	952.12415	-1333.94568	-497.95975	1024.69348	-1180.12781				-371.72995	925.66174	-1261.80444				-64.45408	472.11603	-1341.82886	-446.83527	467.74667	-1309.63708							
102	1.010																												-550.56818	1156.37817	-1372.44800	-4.00443	952.15204	-1333.77246	-497.87180	1024.34265	-1179.84265				-371.73608	925.55157	-1261.81421				-64.27274	472.43210	-1340.76221	-446.87360	467.93512	-1308.66614							
103	1.020																												-550.28650	1156.06030	-1371.97729	-3.86822	952.16968	-1333.60217	-497.99551	1024.60999	-1180.01465				-371.69724	925.60565	-1261.63977				-63.94736	472.20432	-1339.27991	-446.27878	467.22940	-1308.44031							
104	1.030																												-550.19952	1156.05786	-1371.78882	-3.73718	952.16980	-1333.37830	-497.90433	1024.25378	-1179.72754				-371.67230	925.59351	-1261.51978				-63.62201	472.85812	-1337.37769	-446.84262	467.75729	-1308.20276							
105	1.040																												-550.11542	1156.05139	-1371.59241	-3.49899	951.81415	-1332.59827	-496.75769	1023.22070	-1179.42859				-371.67734	925.57245	-1261.53979				-63.52130	473.12723	-1334.82727	-446.62402	467.34058	-1308.15723							
106	1.050																												-550.02972	1156.05652	-1371.45483	-3.37361	951.81195	-1332.44702	-497.84717	1024.63367	-1179.61206				-371.66803	925.55292	-1261.49243				-62.93817	473.26663	-1334.06726	-447.07675	467.17093	-1307.83289							
107	1.060																												-549.95142	1156.05322	-1371.31799	-3.23213	951.79608	-1332.33838	-497.67633	1024.32520	-1179.09875				-371.63892	925.58936	-1261.36096				-62.43934	472.69385	-1332.64978	-447.06534	467.30054	-1307.25793							
108	1.070																												-549.86536	1156.06287	-1371.11426	-3.10491	951.77008	-1332.25220	-497.13791	1023.81879	-1178.83093				-371.63129	925.54480	-1261.31714				-62.22719	473.07550	-1331.40332	-447.08371	467.46442	-1306.55432							
109	1.080																												-549.74146	1156.06067	-1370.92322	-2.62474	951.48175	-1331.80554	-496.86298	1022.84503	-1178.05481				-371.98303	925.35419	-1259.61292				-62.02755	473.40579	-1330.22693	-447.28961	467.47394	-1305.44153							
110	1.090																												-549.64264	1156.02783	-1370.76538	-2.52518	951.45605	-1331.89917	-497.49637	1024.41736	-1178.94263				-371.95428	925.38184	-1259.48169				-61.86625	473.66470	-1329.27527	-447.79248	467.84018	-1305.37122							
111	1.100																												-549.48242	1156.02087	-1370.49915	-2.36602	950.91559	-1330.91296	-497.48743	1024.39099	-1178.93665				-371.96637	925.30914	-1259.52637				-61.75929	473.84616	-1328.64539	-447.79306	467.84073	-1305.37134							
112	1.110																												-549.32379	1156.03015	-1370.26575	-2.28185	950.85724	-1330.95007	-496.52078	1023.25024	-1178.96033				-371.94278	925.35431	-1259.42261				-61.65678	474.01883	-1328.04150	-447.92917	467.64148	-1305.47424							
113	1.120																												-549.19678	1156.02917	-1370.09412	-2.17340	950.77350	-1330.99316	-496.29590	1023.41998	-1178.55164				-371.88440	925.39172	-1259.15308				-61.61312	474.09216	-1327.78442	-447.86188	467.79901	-1305.14612							
114	1.130																												-549.04858	1156.05334	-1369.87012	-1.79386	950.40234	-1330.55273	-497.24261	1024.57483	-1178.52026				-371.50684	924.72845	-1259.43359				-61.54346	474.19897	-1327.37268	-447.86081	467.79794	-1305.14587							
115	1.140																												-548.88385	1156.05884	-1369.65051	-1.72769	950.33978	-1330.66687	-497.13617	1024.66614	-1178.54211				-371.39612	924.81561	-1258.92505				-61.50776	474.27560	-1327.16455	-447.85297	467.79031	-1305.14404							
116	1.150																												-548.76886	1156.09143	-1369.49463	-1.60303	950.30109	-1330.66174	-496.90088	1024.84888	-1178.12256				-371.20178	925.04688	-1258.04578				-61.44897	474.38715	-1326.81982	-447.83820	467.77597	-1305.14063							
117	1.160																												-548.27325	1156.05664	-1369.66968	-1.51983	950.22833	-1330.76160	-496.36166	1023.37854	-1176.49402				-371.00751	925.22198	-1257.15723				-61.44201	474.38943	-1326.77759	-447.66464	467.96512	-1305.01074							
118	1.170																												-548.14001	1156.07690	-1369.48633	-1.42106	950.20416	-1330.77417	-496.39453	1023.29736	-1176.30481				-370.77719	925.51355	-1256.11816				-61.58585	474.02722	-1325.68311	-447.14725	467.58478	-1305.07764							
119	1.180																												-548.03650	1156.10522	-1369.34705	-0.90153	950.12512	-1330.75000	-496.64444	1025.01733	-1177.40125				-370.59363	925.69574	-1255.28149				-61.55759	474.08347	-1325.51782	-447.11081	467.54932	-1305.06921							
120	1.190																												-547.88989	1156.12842	-1369.08875	-0.81415	950.03455	-1330.75403	-496.60999	1025.02551	-1177.38635				-370.45282	925.86346	-1254.64441				-61.35759	474.55710	-1326.28357	-447.01703	467.70737	-1304.71655							
121	1.200																												-547.79901	1156.14404	-1368.93652	-0.70874	949.97595	-1330.77209	-496.21780	1023.52148	-1176.11731				-370.35367	925.90186	-1254.18213				-61.54505	474.09088	-1325.44226	-446.92633	467.79370	-1304.36768							
122	1.210																												-547.66583	1156.17810	-1368.68115	-0.57898	949.92059	-1330.83276	-496.28391	1025.27563	-1177.03027				-369.67926	925.56104	-1255.65649				-61.55017	474.07437	-1325.47144	-446.87366	467.77951	-1303.98352							
123	1.220																												-547.55939	1156.19678	-1368.51013	-0.44347	949.85632	-1330.87952	-496.09344	1025.45129	-1176.56506				-369.52487	925.70447	-1254.95044				-61.54986	474.06305	-1325.46814	-446.62299	467.98880	-1303.30237							
124	1.230																												-547.43762	1156.25366	-1368.20239	-0.29116	949.81085	-1330.98010	-495.96823	1025.54102	-1176.31250				-368.91605	925.17444	-1255.75488				-61.57920	474.00705	-1325.64001	-446.47797	467.90924	-1303.27600							
125	1.240																												-547.33978	1156.31165	-1367.94165	-0.12793	949.81384	-1331.02063	-495.76453	1024.39136	-1174.69885				-368.71255	925.37195	-1254.82520				-61.58733	473.96075	-1325.68384	-445.81790	467.31390	-1303.26343							
126	1.250																												-547.22406	1156.37817	-1367.62134	0.05351	949.77747	-1331.09070	-495.45813	1026.00244	-1175.57043				-368.23309	924.70660	-1254.94092				-61.60875	473.91135	-1325.80823	-445.68787	467.24579	-1303.24023							
127	1.260																												-547.11249	1156.44189	-1367.28345	0.25018	949.69061	-1331.07141	-495.03549	1026.35095	-1174.95129				-367.98953	924.88843	-1253.81848				-61.58397	473.97293	-1325.66492	-445.18161	467.26251	-1303.35828							
128	1.270																												-547.00104	1156.54724	-1366.87354	0.83947	949.51843	-1331.01294	-494.74225	1026.49609	-1174.52722				-367.73807	925.10468	-1252.66431				-61.61213	473.90643	-1325.82825	-444.82776	467.26865	-1303.99829							
129	1.280																												-546.88263	1156.64795	-1366.45557	1.37246	949.09717	-1330.31567	-494.42688	1026.65100	-1174.00366				-367.56421	925.25079	-1251.86572				-61.58350	473.97046	-1325.66174	-444.69180	467.21478	-1303.97620							
130	1.290																												-546.74847	1156.74927	-1366.01794	1.72848	949.02435	-1330.00037	-493.93384	1026.93347	-1173.21545				-366.87997	925.34613	-1252.51819				-61.20218	473.13354	-1326.49146	-444.55844	467.15363	-1303.95337							
131	1.300																												-546.59332	1156.84094	-1365.47217	2.05453	948.87140	-1329.76501	-492.92603	1027.10229	-1172.88647				-366.73651	925.48163	-1251.86121				-60.03161	471.92743	-1330.67566	-444.02512	467.42880	-1304.97766							
132	1.310																												-546.41974	1156.97754	-1365.00073	2.77530	948.40509	-1329.11804	-492.84531	1027.60291	-1171.25073				-366.66806	925.50922	-1251.54114				-59.96193	472.07199	-1330.26782	-443.88474	467.03644	-1305.13574							
133	1.320																												-546.18878	1157.08020	-1364.38647	3.18132	948.30481	-1328.83862	-492.44260	1027.83777	-1171.00220				-366.59985	925.54498	-1251.22351				-58.89775	471.88766	-1334.12903	-443.97864	466.87521	-1305.22473							
134	1.330																												-545.92609	1157.21533	-1363.78650	3.52847	948.23602	-1328.68457	-491.80725	1028.16553	-1169.94006				-366.20084	924.67731	-1252.17688				-58.89845	471.88702	-1334.13318	-443.57510	466.80585	-1305.31885							
